<svg width="55" height="67" viewBox="0 0 55 67" fill="none" xmlns="http://www.w3.org/2000/svg">
<path d="M39.1394 0H27.1931V13.8957H39.1394V0Z" fill="white"/>
<path d="M27.1931 25.197H39.1394V44.7947C39.194 49.5105 37.8665 54.1362 35.3258 58.0839C32.8171 61.9194 27.9742 66.4829 19.0145 66.4829C9.25533 66.4829 3.56707 61.8167 0.497803 59.2597L8.03314 49.8621C11.0289 52.3352 13.9144 54.3696 19.0605 54.3696C22.9568 54.3696 24.5098 52.7645 25.4196 51.3646C26.6563 49.4203 27.2961 47.1465 27.2574 44.8321L27.1931 25.197Z" fill="white"/>
<path d="M21.1006 16.4248H9.1543V28.5567H21.1006V16.4248Z" fill="#29ABE2"/>
<path d="M45.3974 60.7904C45.3974 63.3754 44.1017 64.7659 42.2914 64.7659C40.4811 64.7659 39.2957 63.1141 39.2957 60.9211C39.2957 58.728 40.5178 56.9922 42.3925 56.9922C44.2671 56.9922 45.3974 58.7 45.3974 60.7904ZM40.6833 60.8931C40.6833 62.4516 41.2989 63.5994 42.3557 63.5994C43.4125 63.5994 44.0098 62.3862 44.0098 60.7997C44.0098 59.4092 43.4585 58.1027 42.3557 58.1027C41.253 58.1027 40.6833 59.3626 40.6833 60.8931Z" fill="white"/>
<path d="M47.7681 57.104V64.6445H46.4448V57.104H47.7681Z" fill="white"/>
<path d="M49.2019 64.6445V57.104H50.6722L52.2528 60.2116C52.6597 61.0242 53.0217 61.8592 53.3372 62.7127C53.2544 61.7795 53.2177 60.7063 53.2177 59.5117V57.104H54.4307V64.6445H53.0615L51.4625 61.4715C51.0392 60.638 50.6618 59.7812 50.3322 58.9051C50.3322 59.8384 50.3965 60.8929 50.3965 62.1901V64.6351L49.2019 64.6445Z" fill="white"/>
</svg>
